{"title":"Glennis Grace -  One Christmas night only.mpg","uid":9397197,"size":705402880,"categoryP":"video","categoryS":"other","magnet":"?xt=urn:btih:da2ed633e8f6a5412825704ac94a67c793d0fec3&amp;dn=Glennis+Grace+-++One+Christmas+night+only.mpg&amp;tr=udp%3A%2F%2Ftracker.openbittorrent.com%3A80&amp;tr=udp%3A%2F%2Fopen.demonii.com%3A1337&amp;tr=udp%3A%2F%2Ftracker.coppersurfer.tk%3A6969&amp;tr=udp%3A%2F%2Fexodus.desync.com%3A6969","seeders":0,"leechers":1,"uploader":null,"files":1,"time":1388001683,"description":"Muziekprogramma van het kerstconcert van Glennis Grace. In een intieme kerstshow brengt Glennis samen met haar band de grootste kersthits aller tijden ten gehore, zoals Last Christmas, Santa Claus is comin' to town, All I want for Christmas is you en Driving home for Christmas. Daarnaast zal ze ook een aantal nieuwe kerstnummers zingen van haar album One Christmas night only.\n\n\nMuziekprogramma van het kerstconcert van Glennis Grace. In een intieme kerstshow brengt Glennis samen met haar band de grootste kersthits aller tijden ten gehore, zoals Last Christmas, Santa Claus is comin' to town, All I want for Christmas is you en Driving home for Christmas. Daarnaast zal ze ook een aantal nieuwe kerstnummers zingen van haar album One Christmas night only. \n\n\nShe is the dutch Withney Houston\n\n\nNo transcoding, just transportstream -&gt; programstream and removed commercials\n\nIf anyone has the DVD Glennis Grace One Christmas night only, please share!\n\n\n\nFormat                                   : MPEG-PS\nFile size                                : 673 MiB\nDuration                                 : 42mn 59s\nOverall bit rate mode                    : Variable\nOverall bit rate                         : 2 187 Kbps\n\nVideo\nID                                       : 224 (0xE0)\nFormat                                   : MPEG Video\nFormat version                           : Version 2\nFormat profile                           : Main@Main\nFormat settings, BVOP                    : Yes\nFormat settings, Matrix                  : Custom\nFormat settings, GOP                     : Variable\nDuration                                 : 42mn 59s\nBit rate mode                            : Variable\nBit rate                                 : 1 952 Kbps\nMaximum bit rate                         : 15.0 Mbps\nWidth                                    : 704 pixels\nHeight                                   : 576 pixels\nDisplay aspect ratio                     : 16:9\nFrame rate                               : 25.000 fps\nStandard                                 : PAL\nColor space                              : YUV\nChroma subsampling                       : 4:2:0\nBit depth                                : 8 bits\nScan type                                : Interlaced\nScan order                               : Top Field First\nCompression mode                         : Lossy\nBits/(Pixel*Frame)                       : 0.193\nTime code of first frame                 : 00:00:00:00\nTime code source                         : Group of pictures header\nStream size                              : 600 MiB (89%)\n\nAudio\nID                                       : 192 (0xC0)\nFormat                                   : MPEG Audio\nFormat version                           : Version 1\nFormat profile                           : Layer 2\nDuration                                 : 42mn 59s\nBit rate mode                            : Constant\nBit rate                                 : 192 Kbps\nChannel(s)                               : 2 channels\nSampling rate                            : 48.0 KHz\nCompression mode                         : Lossy\nStream size                              : 59.0 MiB (9%)\n ","torrent":{"xt":"urn:btih:da2ed633e8f6a5412825704ac94a67c793d0fec3","amp;dn":"Glennis+Grace+-++One+Christmas+night+only.mpg","amp;tr":["udp%3A%2F%2Ftracker.openbittorrent.com%3A80","udp%3A%2F%2Fopen.demonii.com%3A1337","udp%3A%2F%2Ftracker.coppersurfer.tk%3A6969","udp%3A%2F%2Fexodus.desync.com%3A6969"],"infoHash":"da2ed633e8f6a5412825704ac94a67c793d0fec3","infoHashBuffer":{"type":"Buffer","data":[218,46,214,51,232,246,165,65,40,37,112,74,201,74,103,199,147,208,254,195]},"announce":[],"urlList":[]}}